<svg id="Слой_1" data-name="Слой 1" xmlns="http://www.w3.org/2000/svg" viewBox="0 0 16 17"><title>Auction</title><path d="M15.53,14.87,9,8.4a21.27,21.27,0,0,0,1.77-2.15.74.74,0,0,0,.93-1.15L7,.47A.75.75,0,1,0,5.95,1.53l.2.2A19.21,19.21,0,0,0,1.43,6.4a.74.74,0,0,0-1,.07.75.75,0,0,0,0,1.06l4.66,4.63A.75.75,0,1,0,6.19,11.1L6,11A17.63,17.63,0,0,0,7.9,9.46l6.57,6.48a.75.75,0,1,0,1.05-1.07ZM5,9.89,2.51,7.45h0A17.71,17.71,0,0,1,7.19,2.83l0,0L9.66,5.23a.72.72,0,0,0-.15.14A17.78,17.78,0,0,1,5,9.89Z"/><path d="M6.49,14.65H1.61a.75.75,0,1,0,0,1.5H6.49a.75.75,0,1,0,0-1.5Z"/></svg>