<?xml version="1.0" encoding="utf-8"?>
		<!-- Generator: Adobe Illustrator 21.1.0, SVG Export Plug-In . SVG Version: 6.00 Build 0)  -->
<svg version="1.1" id="Слой_1" xmlns="http://www.w3.org/2000/svg" xmlns:xlink="http://www.w3.org/1999/xlink" x="0px" y="0px"
	 viewBox="0 0 25 24" style="enable-background:new 0 0 25 24;" xml:space="preserve">
<title>3H</title>
<desc>Created with Sketch.</desc>
<g id="Page-1">
	<g id="Группы-Открыт-поиск-Copy" transform="translate(-25.000000, -762.000000)">
		<path id="_x33_H" d="M43.9,772.3c0.5,0,0.9,0.4,0.9,0.9c0,0.5-0.4,0.9-0.9,0.9H31c-0.5,0-0.9-0.4-0.9-0.9c0-0.5,0.4-0.9,0.9-0.9
			H43.9z M31,767.5h12.9c0.5,0,0.9,0.4,0.9,0.9c0,0.5-0.4,0.9-0.9,0.9H31c-0.5,0-0.9-0.4-0.9-0.9C30,767.9,30.4,767.5,31,767.5z
			 M48.1,777.6c0,0.1-0.1,0.2-0.3,0.2H36.6c0,0,0,0,0,0c0,0-0.1,0-0.1,0c0,0-0.1,0-0.1,0c0,0-0.1,0-0.1,0c0,0-0.1,0-0.1,0
			c0,0-0.1,0-0.1,0c0,0-0.1,0-0.1,0.1c0,0,0,0,0,0l-5.4,4.5v-3.8c0-0.5-0.4-0.9-0.9-0.9h-2.4c-0.2,0-0.3-0.1-0.3-0.2v-13.5
			c0-0.1,0.1-0.2,0.3-0.2h20.6c0.2,0,0.3,0.1,0.3,0.2V777.6z M27.2,762c-1.2,0-2.2,0.9-2.2,2.1v13.5c0,1.2,1,2.1,2.2,2.1h1.4v4.8
			c0,0.4,0.2,0.7,0.5,0.9c0.1,0.1,0.3,0.1,0.4,0.1c0.2,0,0.4-0.1,0.6-0.2l6.7-5.6h10.9c1.2,0,2.2-0.9,2.2-2.1v-13.5
			c0-1.1-1-2.1-2.2-2.1H27.2z"/>
	</g>
</g>
</svg>
