<svg id="Слой_1" data-name="Слой 1" xmlns="http://www.w3.org/2000/svg" viewBox="0 0 159.5 114.76"><title>Dvig</title><path d="M155.19,33H134.31c-2.59,0-5.67,2.71-5.67,5v7.67h-7.33V37.6c0-1.72-1.71-2.87-3.33-3.22H107.23l-4.72-9.9a8.14,8.14,0,0,0-7.1-4.54H78.64V11.49H91.86c2.5,0,4.78-2.59,4.78-5.44C96.64,3.58,94.51.6,91.86.6h-36C53.36.6,51.08,3.2,51.08,6c0,2.47,2.13,5.44,4.78,5.44h15v8.44H54.08a8.55,8.55,0,0,0-6.93,4.41L42,33.06l-19-.46c-2.48,0-6.31,3.28-6.31,6.11V61.49H11.53V35.83a5.44,5.44,0,0,0-10.89,0v64a5.44,5.44,0,1,0,10.89,0V69.49h5.11V90.94C16.64,93.41,20.45,95,23,95H43.18l15.41,16.54c1.18,1.18,2.78,2.57,4.38,2.57h55.11c3.29,0,6.11-3.85,6.11-7V88.6h5.11v8.11c0,2.26,3,4.78,5,4.78h21.78c2.42,0,2.78-3,2.78-4.78V38C158.86,36,157.88,33,155.19,33ZM147.75,89.6h-.56v1h-7.44V77.72H113.08v25.56H65l-13.41-15-3.49-4.11H27.75V45H48.59l7.56-14.22H93.59l7.12,14.24,7.11.2,3-.34.22,11.67h28.24V43.72h8.44Z"/></svg>