<svg id="Слой_1" data-name="Слой 1" xmlns="http://www.w3.org/2000/svg" viewBox="0 0 51.64 65.19"><title>Patrol</title><path d="M45,.76H21.9L13.27,9.62l-4-4L.37,14.07l4.17,4.5L.88,22.33v36.6a5.34,5.34,0,0,0,5.33,5.33H45a5.34,5.34,0,0,0,5.33-5.33V6.09A5.34,5.34,0,0,0,45,.76Zm-21,5H38.08L33.8,10.3H19.59ZM7.38,14.29l1.78-1.7.61.61L8,15Zm38,44.64a.33.33,0,0,1-.33.33H6.21a.33.33,0,0,1-.33-.33V24.36l8.84-9.06H36l9-9.54H45a.34.34,0,0,1,.33.33Z"/><path d="M27.87,24.57l-1.75-1.69-1.74,1.7c-.9.88-8.76,8.75-8.76,15.79a10.51,10.51,0,0,0,17.95,7.42,10.41,10.41,0,0,0,3.06-7.42C36.62,33.26,28.76,25.44,27.87,24.57ZM30,44.26a5.51,5.51,0,0,1-9.41-3.89c0-3.26,3.15-7.63,5.51-10.34,2.32,2.68,5.5,7.08,5.5,10.35A5.44,5.44,0,0,1,30,44.26Z"/></svg>